<?xml version="1.0" standalone="no"?>
<!DOCTYPE svg PUBLIC "-//W3C//DTD SVG 20010904//EN"
 "http://www.w3.org/TR/2001/REC-SVG-20010904/DTD/svg10.dtd">
<svg version="1.0" xmlns="http://www.w3.org/2000/svg"
 width="441.000000pt" height="142.000000pt" viewBox="0 0 441.000000 142.000000"
 preserveAspectRatio="xMidYMid meet">

<g transform="translate(0.000000,142.000000) scale(0.100000,-0.100000)"
fill="#000000" stroke="none">
<path d="M3140 1283 c-343 -35 -563 -65 -855 -118 -598 -109 -824 -133 -1145
-122 -166 6 -357 31 -426 57 -27 11 -64 5 -64 -9 0 -10 171 -48 275 -62 118
-15 507 -12 685 6 85 8 297 37 470 65 433 69 495 78 735 100 531 50 863 2
1233 -176 l132 -64 83 13 82 13 -50 32 c-84 54 -244 128 -357 166 -239 80
-578 122 -798 99z"/>
<path d="M2925 1154 c-75 -6 -97 -13 -88 -27 4 -8 1 -7 -10 1 -13 11 -34 12
-114 2 -54 -6 -138 -16 -188 -21 -130 -14 -296 -44 -295 -53 1 -4 -2 -11 -6
-14 -4 -4 -4 -1 0 6 5 7 1 12 -10 12 -16 0 -151 -21 -264 -40 -30 -5 -71 -12
-90 -14 -19 -2 -98 -12 -175 -22 -101 -13 -216 -18 -415 -18 -264 -1 -452 5
-444 13 2 2 -54 19 -125 37 l-129 33 -85 -29 c-86 -29 -227 -58 -307 -62 l-45
-3 43 -23 c23 -12 48 -20 54 -16 6 4 8 3 5 -3 -8 -12 61 -46 75 -37 6 4 8 2 4
-4 -8 -13 59 -36 75 -26 7 4 9 3 5 -4 -6 -10 128 -59 211 -77 43 -9 50 -22 25
-48 -12 -12 -33 -49 -49 -82 -22 -49 -27 -74 -27 -135 -1 -89 23 -139 97 -207
67 -62 92 -65 526 -61 l374 3 34 80 c19 44 41 95 49 113 8 18 12 37 8 44 -4 7
-3 8 4 4 7 -4 12 -2 12 3 0 14 77 14 85 1 4 -6 -10 -45 -30 -88 -21 -42 -38
-87 -39 -99 0 -13 -5 -23 -10 -23 -4 0 -5 -7 -2 -16 3 -8 2 -12 -4 -9 -6 3
-10 1 -10 -4 0 -6 10 -11 23 -10 12 0 216 -3 453 -6 l430 -7 50 43 c42 36 49
40 52 23 10 -69 -4 -64 170 -64 l157 0 41 33 c22 17 49 40 59 50 22 22 37 6
30 -33 -9 -49 -3 -51 215 -48 163 2 204 6 208 17 3 9 0 11 -9 5 -11 -6 -12 -5
-2 7 14 18 13 -9 13 264 l0 236 68 30 c116 53 243 99 362 134 l115 33 -65 31
c-104 49 -199 83 -211 75 -8 -5 -9 -3 -4 6 6 10 1 12 -26 7 -21 -4 -29 -4 -20
2 13 8 -118 42 -274 71 -60 12 -466 21 -560 14z m742 -70 c-3 -3 -12 -4 -19
-1 -8 3 -5 6 6 6 11 1 17 -2 13 -5z m-630 -227 c4 -6 6 -28 4 -49 -1 -21 1
-38 6 -38 16 0 31 22 26 39 -3 12 -2 13 4 3 7 -10 13 -8 27 7 10 11 16 24 13
28 -3 5 2 9 11 10 54 5 375 7 380 3 4 -3 5 -142 2 -310 l-5 -305 -178 -3 -177
-2 -9 23 c-5 14 -8 43 -6 66 3 35 1 39 -13 31 -26 -14 -72 -60 -72 -71 0 -6
-4 -7 -10 -4 -5 3 -10 2 -10 -3 0 -24 -68 -36 -205 -35 l-140 1 -3 57 c-3 56
-4 57 -22 40 -11 -10 -17 -23 -13 -29 3 -6 2 -8 -2 -3 -9 8 -77 -52 -71 -62 3
-5 -429 -7 -443 -2 -2 0 13 19 33 41 20 23 34 45 31 50 -3 5 0 12 6 16 8 5 10
2 4 -7 -10 -19 121 111 140 139 l15 22 -68 0 -68 0 -17 -37 c-9 -21 -23 -58
-32 -83 -8 -25 -19 -54 -24 -65 -5 -11 -13 -32 -19 -47 l-11 -27 -203 -3
c-112 -2 -209 -1 -215 1 -19 5 -17 17 32 140 25 63 45 116 45 118 0 2 -30 3
-67 1 -68 -3 -68 -3 -86 -40 -9 -21 -19 -46 -21 -55 -7 -36 -76 -174 -85 -169
-4 3 -179 6 -387 7 l-379 2 -53 27 c-29 16 -53 32 -53 37 -1 4 -5 7 -10 5 -5
-1 -8 4 -7 10 2 7 -4 11 -12 10 -8 -2 -12 0 -8 3 4 4 -3 26 -14 49 -17 31 -22
58 -22 112 1 63 5 79 37 137 19 36 33 68 29 73 -4 4 -2 4 5 0 7 -4 17 2 23 13
5 11 35 38 65 59 30 22 51 43 47 47 -4 5 -2 5 5 1 6 -3 29 0 50 8 21 8 47 17
58 19 11 3 496 5 1077 6 806 0 1059 -2 1065 -12z m-2322 -67 c-3 -5 -12 -10
-18 -10 -7 0 -6 4 3 10 19 12 23 12 15 0z m-40 -10 c-3 -5 -1 -10 6 -10 7 0
10 -3 6 -6 -9 -9 -28 6 -22 17 4 5 8 9 11 9 3 0 2 -4 -1 -10z m1635 -300 c0
-11 -91 -100 -102 -100 -11 0 -2 31 23 81 16 31 21 35 48 31 17 -2 31 -8 31
-12z"/>
<path d="M866 764 c-152 -56 -252 -243 -183 -345 48 -71 64 -76 289 -84 112
-3 272 -5 356 -3 l153 3 38 90 39 90 -321 5 c-301 5 -322 6 -325 23 -2 10 4
27 14 38 16 18 34 19 344 19 l327 0 21 53 c11 28 27 69 36 90 l16 37 -382 -1
c-306 0 -391 -3 -422 -15z"/>
<path d="M1726 699 c-20 -44 -36 -85 -36 -90 0 -5 47 -9 104 -9 58 0 107 -4
111 -10 3 -5 1 -17 -4 -27 -15 -26 -91 -214 -91 -224 0 -6 55 -8 127 -7 l126
3 46 120 c25 66 50 126 54 133 6 9 48 12 150 12 l143 0 55 58 c30 31 68 72 84
90 l29 32 -431 0 -430 0 -37 -81z"/>
<path d="M2528 557 l-206 -222 100 -3 100 -3 118 111 c65 60 120 110 124 110
3 0 6 -49 6 -110 l0 -110 90 0 91 0 132 111 132 110 3 -110 3 -111 104 0 105
0 0 225 0 225 -122 0 -123 1 -112 -118 -112 -118 -1 118 0 117 -112 0 -113 0
-207 -223z"/>
</g>
</svg>
